<?xml version="1.0" encoding="UTF-8" standalone="no"?>
<!DOCTYPE svg PUBLIC "-//W3C//DTD SVG 1.1//EN" "http://www.w3.org/Graphics/SVG/1.1/DTD/svg11.dtd">
<svg width="100%" height="100%" viewBox="0 0 1188 1188" version="1.1" xmlns="http://www.w3.org/2000/svg" xmlns:xlink="http://www.w3.org/1999/xlink" xml:space="preserve" xmlns:serif="http://www.serif.com/" style="fill-rule:evenodd;clip-rule:evenodd;stroke-linejoin:round;stroke-miterlimit:2;">
    <g transform="matrix(4.16667,0,0,4.16667,0,0)">
        <g>
            <g>
                <path d="M135.899,167.877C137.801,169.779 139.992,170.728 142.466,170.728C144.94,170.728 147.127,169.78 149.028,167.877L282.082,34.829C283.984,32.926 284.929,30.736 284.929,28.262C284.929,25.788 283.978,23.597 282.082,21.695L267.808,7.417C265.906,5.514 263.715,4.564 261.238,4.564C258.767,4.564 256.577,5.514 254.675,7.417L142.466,119.622L30.262,7.417C28.359,5.514 26.169,4.564 23.695,4.564C21.22,4.564 19.03,5.514 17.128,7.417L2.856,21.695C0.95,23.597 0,25.784 0,28.262C0,30.74 0.953,32.927 2.856,34.829L135.899,167.877Z" style="fill:rgb(255,13,13);fill-rule:nonzero;"/>
                <path d="M267.808,117.053C265.906,115.15 263.715,114.2 261.238,114.2C258.767,114.2 256.577,115.15 254.675,117.053L142.466,229.257L30.262,117.05C28.359,115.147 26.169,114.197 23.695,114.197C21.22,114.197 19.03,115.147 17.128,117.05L2.856,131.327C0.95,133.23 0,135.42 0,137.893C0,140.367 0.953,142.558 2.856,144.463L135.899,277.509C137.801,279.412 139.992,280.363 142.466,280.363C144.94,280.363 147.127,279.412 149.028,277.509L282.082,144.463C283.984,142.56 284.929,140.37 284.929,137.898C284.929,135.424 283.978,133.237 282.082,131.331L267.808,117.053Z" style="fill:rgb(255,13,13);fill-rule:nonzero;"/>
            </g>
        </g>
    </g>
</svg>
